# xmcd CD database file
#
# Track frame offsets:
#	150
#	15491
#	26672
#
# Disc length: 846 seconds
#
# Revision: 0
# Processed by: cddbd v1.5.2PL0 Copyright (c) Steve Scherf et al.
# Submitted via: CDex 1.77
#
DISCID=17034c03
DTITLE=FIL LORENZ SOUL-TET - Stinky Stinky CD-EP
DYEAR=2005
DGENRE=Jazz
TTITLE0=Stinky Stinky
TTITLE1=Amacallya
TTITLE2=Sassie Lassie
EXTD=YEAR: 2005
EXTT0=
EXTT1=
EXTT2=
PLAYORDER=
